<?xml version="1.0" encoding="UTF-8"?>
<svg width="19px" height="26px" viewBox="0 0 19 26" version="1.1" xmlns="http://www.w3.org/2000/svg" xmlns:xlink="http://www.w3.org/1999/xlink">
    <!-- Generator: Sketch 46.2 (44496) - http://www.bohemiancoding.com/sketch -->
    <title>Path</title>
    <desc>Created with Sketch.</desc>
    <defs></defs>
    <g id="Page-1" stroke="none" stroke-width="1" fill="none" fill-rule="evenodd">
        <g id="Grøn-Tuborg" transform="translate(-1084.000000, -1561.000000)" fill="#FFFFFF">
            <g id="Duft-og-smag" transform="translate(-13.000000, 1154.000000)">
                <g id="Sliders" transform="translate(965.000000, 335.000000)">
                    <g id="Slider">
                        <path d="M145.692466,77.1513485 C147.139836,74.8370831 145.502994,73.1771295 143.786889,72.4513699 C142.673402,71.9802439 141.507797,72.0001203 141.316154,72.0001203 C141.12451,72.0001203 139.958362,71.9802439 138.844876,72.4513699 C137.128771,73.1771295 135.491929,74.8376203 136.939299,77.1513485 C137.272096,77.6826411 137.223778,77.762147 136.776972,78.1027329 C133.92675,79.9028962 132,83.3452854 132,87.2964047 C132,93.1100027 136.170553,97.822337 141.315611,97.822337 C146.460669,97.822337 150.631222,93.1100027 150.631222,87.2964047 C150.631222,83.346897 148.706101,79.9061194 145.85805,78.1054189 C145.407987,77.762147 145.360754,77.6821039 145.692466,77.1513485 Z" id="Path"></path>
                    </g>
                </g>
            </g>
        </g>
    </g>
</svg>
