<svg xmlns="http://www.w3.org/2000/svg" width="208.052" height="211.881" viewBox="0 0 208.052 211.881">
    <g id="Bubble" transform="translate(-113.72 -683.419)">
        <path id="Icon_metro-bubble" data-name="Icon metro-bubble" d="M140.685-21.517C163.476-5.165,168.3,50.21,168.3,64.652c0,28.157-2.48,84.468-42.584,102.682C100.533,178.771,30.752,136.1,17.833,134.418c-6.459-1.677-6.366.662-9.227,0-12.1,21.988-21.756,29.34-35.718,29.919v-5.381c7.539-6.713,10.08-10.563,10.08-24.537,0-1.95-.083-3.865-.238-5.737-5.656-6.77-23.7-21.188-22.418-47.286,1.286-26.14,7.1-90.432,25.555-105.526C2.247-50.848,114.277-47.368,140.685-21.517Z" transform="translate(153.473 726.022)" fill="#c8e0d9" />
    </g>
</svg>
