<svg xmlns="http://www.w3.org/2000/svg" width="277.43" height="157.974" viewBox="0 0 277.43 157.974">
    <g id="Bubble" transform="translate(-0.676 12.459)">
        <path id="Icon_metro-bubble" data-name="Icon metro-bubble" d="M200.854-27.133c30.392,12,36.823,52.624,36.823,63.22,0,20.658-3.306,61.972-56.784,75.335C147.313,119.813,54.262,88.5,37.036,87.273c-8.613-1.23-8.488.486-12.3,0C8.6,103.4-9.612,114.946-28.23,115.37v-3.948c10.053-4.925,18.775-13.9,18.775-24.149a28.329,28.329,0,0,0-.317-4.209C-17.314,78.1-41.379,67.519-39.666,48.371-37.951,29.193-30.2-17.977-5.589-29.051,16.253-48.652,165.64-46.1,200.854-27.133Z" transform="translate(40.429 30.144)" fill="#c8e0d9" />
    </g>
</svg>
